<?xml version="1.0" encoding="UTF-8" standalone="no" ?>
<!DOCTYPE svg PUBLIC "-//W3C//DTD SVG 1.1//EN" "http://www.w3.org/Graphics/SVG/1.1/DTD/svg11.dtd">
<svg xmlns="http://www.w3.org/2000/svg" xmlns:xlink="http://www.w3.org/1999/xlink" version="1.1" width="1080" height="1080" viewBox="0 0 1080 1080" xml:space="preserve">
<desc>Created with Fabric.js 5.2.4</desc>
<defs>
</defs>
<g transform="matrix(1 0 0 1 540 540)" id="85c21935-edfb-4354-9c90-a4a10107b1a5"  >
<rect style="stroke: none; stroke-width: 1; stroke-dasharray: none; stroke-linecap: butt; stroke-dashoffset: 0; stroke-linejoin: miter; stroke-miterlimit: 4; fill: rgb(255,255,255); fill-rule: nonzero; opacity: 1; visibility: hidden;" vector-effect="non-scaling-stroke"  x="-540" y="-540" rx="0" ry="0" width="1080" height="1080" />
</g>
<g transform="matrix(1 0 0 1 540 540)" id="6d105714-6113-4cbc-a199-93884907a7d4"  >
</g>
<g transform="matrix(1 0 0 1 540 309.33)"  >
<g style="opacity: 1;" vector-effect="non-scaling-stroke"   >
		<g transform="matrix(1 0 0 1 -427.28 -376.77)"  >
<rect style="stroke: none; stroke-width: 1; stroke-dasharray: none; stroke-linecap: butt; stroke-dashoffset: 0; stroke-linejoin: miter; stroke-miterlimit: 4; fill: rgb(255,255,255); fill-rule: nonzero; opacity: 1;" vector-effect="non-scaling-stroke"  x="-50" y="-50" rx="0" ry="0" width="100" height="100" />
</g>
		<g transform="matrix(1.58 0 0 1.58 22.73 73.23)"  >
<path style="stroke: none; stroke-width: 1; stroke-dasharray: none; stroke-linecap: butt; stroke-dashoffset: 0; stroke-linejoin: miter; stroke-miterlimit: 4; fill: rgb(49,196,141); fill-rule: nonzero; opacity: 1;" vector-effect="non-scaling-stroke"  transform=" translate(-288, -256)" d="M 0 96 L 576 96 C 576 60.7 547.3 32 512 32 L 64 32 C 28.7 32 0 60.7 0 96 z M 0 128 L 0 416 C 0 451.3 28.7 480 64 480 L 512 480 C 547.3 480 576 451.3 576 416 L 576 128 L 0 128 z M 64 405.3 C 64 375.8 87.9 352 117.3 352 L 234.7 352 C 264.2 352 288 375.9 288 405.3 C 288 411.2 283.2 416 277.3 416 L 74.7 416 C 68.8 416 64 411.2 64 405.3 z M 176 320 C 140.7 320 112 291.3 112 256 C 112 220.7 140.7 192 176 192 C 211.3 192 240 220.7 240 256 C 240 291.3 211.3 320 176 320 z M 352 208 C 352 199.2 359.2 192 368 192 L 496 192 C 504.8 192 512 199.2 512 208 C 512 216.8 504.8 224 496 224 L 368 224 C 359.2 224 352 216.8 352 208 z M 352 272 C 352 263.2 359.2 256 368 256 L 496 256 C 504.8 256 512 263.2 512 272 C 512 280.8 504.8 288 496 288 L 368 288 C 359.2 288 352 280.8 352 272 z M 352 336 C 352 327.2 359.2 320 368 320 L 496 320 C 504.8 320 512 327.2 512 336 C 512 344.8 504.8 352 496 352 L 368 352 C 359.2 352 352 344.8 352 336 z" stroke-linecap="round" />
</g>
</g>
</g>
</svg>